<svg xmlns="http://www.w3.org/2000/svg" viewBox="0 0 64 64" role="img" aria-labelledby="title">
	<title id="title">Пока не забыл</title>
	<path
		d="M30 32 C22 25 17 18 21 12 C24 7 31 10 32 17 C33 22 31 28 30 32 C24 27 15 25 11 30 C7 35 13 40 19 38 C24 37 28 34 30 32 C28 38 25 48 29 52 C33 55 35 43 30 32 C34 38 38 49 43 50 C48 50 43 38 30 32 C38 30 47 25 55 16"
		fill="none"
		stroke="#2945c7"
		stroke-linecap="round"
		stroke-linejoin="round"
		stroke-width="3.8"
	/>
	<circle cx="30" cy="32" r="3" fill="#ff5a3d" />
</svg>
